<svg viewBox="0 0 900 170" width="900" height="170" xmlns="http://www.w3.org/2000/svg">
  <defs>
    <linearGradient id="sky" x1="0" y1="0" x2="0" y2="1">
      <stop offset="0%" stop-color="#050018"/>
      <stop offset="100%" stop-color="#1a0a2e"/>
    </linearGradient>
    <linearGradient id="rainbow" x1="0" y1="0" x2="1" y2="0">
      <stop offset="0%"   stop-color="#FF0055"/>
      <stop offset="16%"  stop-color="#FF8800"/>
      <stop offset="33%"  stop-color="#FFD700"/>
      <stop offset="50%"  stop-color="#00FF88"/>
      <stop offset="66%"  stop-color="#0099FF"/>
      <stop offset="83%"  stop-color="#AA00FF"/>
      <stop offset="100%" stop-color="#FF0055"/>
    </linearGradient>
    <linearGradient id="pipeG" x1="0" y1="0" x2="1" y2="0">
      <stop offset="0%"   stop-color="#006600"/>
      <stop offset="35%"  stop-color="#00CC00"/>
      <stop offset="65%"  stop-color="#00AA00"/>
      <stop offset="100%" stop-color="#005500"/>
    </linearGradient>
    <linearGradient id="pipeH" x1="0" y1="0" x2="1" y2="0">
      <stop offset="0%"   stop-color="#007700"/>
      <stop offset="35%"  stop-color="#00EE00"/>
      <stop offset="65%"  stop-color="#00CC00"/>
      <stop offset="100%" stop-color="#006600"/>
    </linearGradient>
  </defs>

  <!-- SKY -->
  <rect width="900" height="170" fill="url(#sky)"/>

  <!-- STARS -->
  <circle cx="30"  cy="18" r="1.5" fill="#FFD700" opacity="0.9"/>
  <circle cx="80"  cy="42" r="1"   fill="#FFF"    opacity="0.8"/>
  <circle cx="140" cy="12" r="2"   fill="#FFD700" opacity="0.7"/>
  <circle cx="220" cy="33" r="1"   fill="#FFF"    opacity="0.9"/>
  <circle cx="320" cy="9"  r="1.5" fill="#FFD700" opacity="0.8"/>
  <circle cx="400" cy="48" r="1"   fill="#FFF"    opacity="0.7"/>
  <circle cx="490" cy="18" r="2"   fill="#FFD700" opacity="0.9"/>
  <circle cx="560" cy="38" r="1"   fill="#FFF"    opacity="0.8"/>
  <circle cx="650" cy="12" r="1.5" fill="#FFD700" opacity="0.7"/>
  <circle cx="720" cy="32" r="1"   fill="#FFF"    opacity="0.9"/>
  <circle cx="800" cy="22" r="2"   fill="#FFD700" opacity="0.8"/>
  <circle cx="860" cy="45" r="1"   fill="#FFF"    opacity="0.6"/>
  <circle cx="110" cy="68" r="1"   fill="#FFD700" opacity="0.6"/>
  <circle cx="270" cy="58" r="1.5" fill="#FFF"    opacity="0.7"/>
  <circle cx="460" cy="72" r="1"   fill="#FFD700" opacity="0.8"/>
  <circle cx="620" cy="62" r="1.5" fill="#FFF"    opacity="0.6"/>
  <circle cx="780" cy="68" r="1"   fill="#FFD700" opacity="0.7"/>

  <!-- CROSS SPARKLES -->
  <polygon points="55,22 56.5,27 55,32 53.5,27" fill="#FFD700" opacity="0.9"/>
  <polygon points="50,27 55,28.5 60,27 55,25.5"  fill="#FFD700" opacity="0.9"/>
  <polygon points="380,14 381.5,19 380,24 378.5,19" fill="#FFF" opacity="0.8"/>
  <polygon points="375,19 380,20.5 385,19 380,17.5" fill="#FFF" opacity="0.8"/>
  <polygon points="720,16 721.5,21 720,26 718.5,21" fill="#FFD700" opacity="0.9"/>
  <polygon points="715,21 720,22.5 725,21 720,19.5" fill="#FFD700" opacity="0.9"/>

  <!-- RAINBOW TITLE -->
  <text x="450" y="52" text-anchor="middle" fill="url(#rainbow)"
        font-family="'Courier New', monospace" font-size="24" font-weight="bold" letter-spacing="3">★ STARMAN ZONE ★</text>

  <!-- PIPE LEFT -->
  <rect x="55"  y="100" width="56" height="12" fill="url(#pipeH)" rx="3"/>
  <rect x="58"  y="102" width="50" height="6"  fill="#00EE00" opacity="0.25"/>
  <rect x="62"  y="112" width="42" height="24" fill="url(#pipeG)"/>
  <rect x="65"  y="112" width="12" height="24" fill="#00CC00" opacity="0.2"/>

  <!-- QUESTION BLOCK -->
  <rect x="270" y="72"  width="32" height="32" fill="#CC8800" rx="2"/>
  <rect x="272" y="74"  width="28" height="28" fill="#FFAA00"/>
  <rect x="272" y="74"  width="28" height="6"  fill="#FFDD55"/>
  <rect x="272" y="74"  width="4"  height="28" fill="#FFDD55"/>
  <text x="286" y="95" text-anchor="middle" fill="#7A3B00"
        font-family="Arial Black, sans-serif" font-size="18" font-weight="900">?</text>
  <!-- coin above -->
  <ellipse cx="286" cy="60" rx="9"  ry="10" fill="#FFD700"/>
  <ellipse cx="286" cy="60" rx="7"  ry="8"  fill="#FFE95E"/>
  <ellipse cx="283" cy="57" rx="2.5" ry="3" fill="#FFFAAA" opacity="0.7"/>

  <!-- BRICK PLATFORM -->
  <rect x="530" y="78" width="30" height="30" fill="#9B4A00" rx="1"/>
  <rect x="532" y="80" width="26" height="26" fill="#B85C00"/>
  <rect x="532" y="80" width="26" height="4"  fill="#CC7A22"/>
  <rect x="560" y="78" width="30" height="30" fill="#9B4A00" rx="1"/>
  <rect x="562" y="80" width="26" height="26" fill="#B85C00"/>
  <rect x="562" y="80" width="26" height="4"  fill="#CC7A22"/>
  <rect x="590" y="78" width="30" height="30" fill="#9B4A00" rx="1"/>
  <rect x="592" y="80" width="26" height="26" fill="#B85C00"/>
  <rect x="592" y="80" width="26" height="4"  fill="#CC7A22"/>

  <!-- STARMAN -->
  <polygon points="450,62 455.9,79.5 474.5,79.5 460,90.1 465.9,107.6 450,97 434.1,107.6 440,90.1 425.5,79.5 444.1,79.5"
           fill="#FFD700" stroke="#FF8800" stroke-width="1.5"/>
  <ellipse cx="444" cy="82" rx="4" ry="4" fill="#FFF" opacity="0.35"/>
  <rect x="440" y="86" width="5" height="5" fill="#2a1a00" rx="1"/>
  <rect x="451" y="86" width="5" height="5" fill="#2a1a00" rx="1"/>
  <rect x="441" y="94" width="14" height="3" fill="#2a1a00" rx="1"/>
  <rect x="442" y="97" width="12" height="2" fill="#2a1a00" rx="1"/>

  <!-- PIPE RIGHT -->
  <rect x="790" y="80"  width="56" height="12" fill="url(#pipeH)" rx="3"/>
  <rect x="793" y="82"  width="50" height="6"  fill="#00EE00" opacity="0.25"/>
  <rect x="797" y="92"  width="42" height="46" fill="url(#pipeG)"/>
  <rect x="800" y="92"  width="12" height="46" fill="#00CC00" opacity="0.2"/>

  <!--
    MARIO — pixel art traced from reference image
    Colors: R=#CC1100  Y=#D4980E  G=#5A6600
    Grid: pxSize=5, x_base=160, y_base=26
    13 cols (0-12), 22 rows (0-21)
    Ground at y=136 = y_base + 22*5 = 26+110 = 136 ✓
  -->

  <!-- Row 0 y=26 : ....RRRR..... -->
  <rect x="180" y="26"  width="20" height="5" fill="#CC1100"/>
  <!-- Row 1 y=31 : ...RRRRRR.... -->
  <rect x="175" y="31"  width="30" height="5" fill="#CC1100"/>
  <!-- Row 2 y=36 : ..RR YYY R YYYY. -->
  <rect x="170" y="36"  width="10" height="5" fill="#CC1100"/>
  <rect x="180" y="36"  width="15" height="5" fill="#D4980E"/>
  <rect x="195" y="36"  width="5"  height="5" fill="#CC1100"/>
  <rect x="200" y="36"  width="20" height="5" fill="#D4980E"/>
  <!-- Row 3 y=41 : ..R YYYY R YYY.. -->
  <rect x="170" y="41"  width="5"  height="5" fill="#CC1100"/>
  <rect x="175" y="41"  width="20" height="5" fill="#D4980E"/>
  <rect x="195" y="41"  width="5"  height="5" fill="#CC1100"/>
  <rect x="200" y="41"  width="15" height="5" fill="#D4980E"/>
  <!-- Row 4 y=46 : ...RR Y RRRR.... -->
  <rect x="175" y="46"  width="10" height="5" fill="#CC1100"/>
  <rect x="185" y="46"  width="5"  height="5" fill="#D4980E"/>
  <rect x="190" y="46"  width="20" height="5" fill="#CC1100"/>
  <!-- Row 5 y=51 : ...YYYYYYYYYY.. (mustache/lower face) -->
  <rect x="175" y="51"  width="50" height="5" fill="#D4980E"/>
  <!-- Row 6 y=56 : ....YYYYYYYY.. -->
  <rect x="180" y="56"  width="40" height="5" fill="#D4980E"/>
  <!-- Row 7 y=61 : .GG RRRRRRRR GG. -->
  <rect x="165" y="61"  width="10" height="5" fill="#5A6600"/>
  <rect x="175" y="61"  width="40" height="5" fill="#CC1100"/>
  <rect x="215" y="61"  width="10" height="5" fill="#5A6600"/>
  <!-- Row 8 y=66 : GG RRRRRRRR GGG -->
  <rect x="160" y="66"  width="10" height="5" fill="#5A6600"/>
  <rect x="170" y="66"  width="40" height="5" fill="#CC1100"/>
  <rect x="210" y="66"  width="15" height="5" fill="#5A6600"/>
  <!-- Row 9 y=71 : G RRRRRRRRRRR G -->
  <rect x="160" y="71"  width="5"  height="5" fill="#5A6600"/>
  <rect x="165" y="71"  width="55" height="5" fill="#CC1100"/>
  <rect x="220" y="71"  width="5"  height="5" fill="#5A6600"/>
  <!-- Row 10 y=76 : RRRRRRRRRRRR.. (shirt full) -->
  <rect x="160" y="76"  width="60" height="5" fill="#CC1100"/>
  <!-- Row 11 y=81 : G RRRRRRRRRR G Y (hand) -->
  <rect x="160" y="81"  width="5"  height="5" fill="#5A6600"/>
  <rect x="165" y="81"  width="50" height="5" fill="#CC1100"/>
  <rect x="215" y="81"  width="5"  height="5" fill="#5A6600"/>
  <rect x="220" y="81"  width="5"  height="5" fill="#D4980E"/>
  <!-- Row 12 y=86 : GGGGGGGGGG .. YY (overalls + hand) -->
  <rect x="160" y="86"  width="50" height="5" fill="#5A6600"/>
  <rect x="215" y="86"  width="10" height="5" fill="#D4980E"/>
  <!-- Row 13 y=91 : .GGGGGGGGG .. YY -->
  <rect x="165" y="91"  width="45" height="5" fill="#5A6600"/>
  <rect x="215" y="91"  width="10" height="5" fill="#D4980E"/>
  <!-- Row 14 y=96 : .GGG.GGGGGG.. (legs gap) -->
  <rect x="165" y="96"  width="15" height="5" fill="#5A6600"/>
  <rect x="185" y="96"  width="30" height="5" fill="#5A6600"/>
  <!-- Row 15 y=101: .GGG.GGGGG... -->
  <rect x="165" y="101" width="15" height="5" fill="#5A6600"/>
  <rect x="185" y="101" width="25" height="5" fill="#5A6600"/>
  <!-- Row 16 y=106: .GGGG.GGGG... -->
  <rect x="165" y="106" width="20" height="5" fill="#5A6600"/>
  <rect x="190" y="106" width="20" height="5" fill="#5A6600"/>
  <!-- Row 17 y=111: .GGGGGGGGG... -->
  <rect x="165" y="111" width="45" height="5" fill="#5A6600"/>
  <!-- Row 18 y=116: .GGGGGG.GGG.. (shoes) -->
  <rect x="165" y="116" width="30" height="5" fill="#5A6600"/>
  <rect x="200" y="116" width="15" height="5" fill="#5A6600"/>
  <!-- Row 19 y=121: .GGGGG..GGG.. -->
  <rect x="165" y="121" width="25" height="5" fill="#5A6600"/>
  <rect x="200" y="121" width="15" height="5" fill="#5A6600"/>
  <!-- Row 20 y=126: GGGGGG..GGG.. -->
  <rect x="160" y="126" width="30" height="5" fill="#5A6600"/>
  <rect x="200" y="126" width="15" height="5" fill="#5A6600"/>
  <!-- Row 21 y=131: .GGGG...GGGG. -->
  <rect x="165" y="131" width="20" height="5" fill="#5A6600"/>
  <rect x="200" y="131" width="20" height="5" fill="#5A6600"/>

  <!-- GROUND (brick) -->
  <rect x="0"   y="136" width="900" height="34" fill="#7A3B00"/>
  <rect x="0"   y="150" width="900" height="2"  fill="#5C2E00"/>
  <rect x="0"   y="136" width="900" height="3"  fill="#9B5200" opacity="0.5"/>
  <!-- row 1 verticals -->
  <rect x="32"  y="136" width="2" height="14" fill="#5C2E00"/>
  <rect x="96"  y="136" width="2" height="14" fill="#5C2E00"/>
  <rect x="160" y="136" width="2" height="14" fill="#5C2E00"/>
  <rect x="224" y="136" width="2" height="14" fill="#5C2E00"/>
  <rect x="288" y="136" width="2" height="14" fill="#5C2E00"/>
  <rect x="352" y="136" width="2" height="14" fill="#5C2E00"/>
  <rect x="416" y="136" width="2" height="14" fill="#5C2E00"/>
  <rect x="480" y="136" width="2" height="14" fill="#5C2E00"/>
  <rect x="544" y="136" width="2" height="14" fill="#5C2E00"/>
  <rect x="608" y="136" width="2" height="14" fill="#5C2E00"/>
  <rect x="672" y="136" width="2" height="14" fill="#5C2E00"/>
  <rect x="736" y="136" width="2" height="14" fill="#5C2E00"/>
  <rect x="800" y="136" width="2" height="14" fill="#5C2E00"/>
  <rect x="864" y="136" width="2" height="14" fill="#5C2E00"/>
  <!-- row 2 verticals (offset) -->
  <rect x="16"  y="152" width="2" height="18" fill="#5C2E00"/>
  <rect x="80"  y="152" width="2" height="18" fill="#5C2E00"/>
  <rect x="144" y="152" width="2" height="18" fill="#5C2E00"/>
  <rect x="208" y="152" width="2" height="18" fill="#5C2E00"/>
  <rect x="272" y="152" width="2" height="18" fill="#5C2E00"/>
  <rect x="336" y="152" width="2" height="18" fill="#5C2E00"/>
  <rect x="400" y="152" width="2" height="18" fill="#5C2E00"/>
  <rect x="464" y="152" width="2" height="18" fill="#5C2E00"/>
  <rect x="528" y="152" width="2" height="18" fill="#5C2E00"/>
  <rect x="592" y="152" width="2" height="18" fill="#5C2E00"/>
  <rect x="656" y="152" width="2" height="18" fill="#5C2E00"/>
  <rect x="720" y="152" width="2" height="18" fill="#5C2E00"/>
  <rect x="784" y="152" width="2" height="18" fill="#5C2E00"/>
  <rect x="848" y="152" width="2" height="18" fill="#5C2E00"/>

</svg>
